<?xml version="1.0" encoding="UTF-8"?>
<svg version="1.1" xmlns="http://www.w3.org/2000/svg" width="100" height="100">
<path d="M0 0 C33 0 66 0 100 0 C100 33 100 66 100 100 C67 100 34 100 0 100 C0 67 0 34 0 0 Z " fill="#FEF8AC" transform="translate(0,0)"/>
<path d="M0 0 C0 0.99 0 1.98 0 3 C2.475 3.99 2.475 3.99 5 5 C4.44271087 8.34373475 3.64826111 11.03312999 2 14 C1.401875 13.835 0.80375 13.67 0.1875 13.5 C-2.11344336 12.8885876 -2.11344336 12.8885876 -5 13 C-6.33981486 12.6937566 -7.67511887 12.36548445 -9 12 C-9.89577032 8.49835238 -10.26716699 6.61870251 -8.8125 3.25 C-5.98019574 -0.26596391 -4.38976972 -1.46325657 0 0 Z " fill="#FBF296" transform="translate(87,3)"/>
<path d="M0 0 C-0.185625 0.886875 -0.37125 1.77375 -0.5625 2.6875 C-0.98042484 5.85178811 -0.80777742 7.94839642 0 11 C-1.65 11 -3.3 11 -5 11 C-5 11.66 -5 12.32 -5 13 C-6.32 12.67 -7.64 12.34 -9 12 C-9.33 10.35 -9.66 8.7 -10 7 C-11.32 6.67 -12.64 6.34 -14 6 C-13.67 5.01 -13.34 4.02 -13 3 C-12.34 3 -11.68 3 -11 3 C-11 1.68 -11 0.36 -11 -1 C-6.72305054 -2.37473375 -4.16065329 -1.38688443 0 0 Z " fill="#FBF297" transform="translate(93,27)"/>
<path d="M0 0 C2.125 0.8125 2.125 0.8125 4 2 C4.99 2 5.98 2 7 2 C8.4606285 4.64738916 9 5.89448334 9 9 C7.68 9 6.36 9 5 9 C5 10.65 5 12.3 5 14 C0.94568308 15.15837626 -1.21812119 14.83691257 -5 13 C-4.814375 12.0925 -4.62875 11.185 -4.4375 10.25 C-4.04265379 7.31685676 -4.05308428 5.7355343 -5 3 C-2.75 1.375 -2.75 1.375 0 0 Z " fill="#FBF297" transform="translate(42,22)"/>
<path d="M0 0 C0 0.99 0 1.98 0 3 C0.825 3.495 1.65 3.99 2.5 4.5 C3.325 4.995 4.15 5.49 5 6 C5 6.99 5 7.98 5 9 C4.34 9 3.68 9 3 9 C2.67 10.32 2.34 11.64 2 13 C-6 13 -6 13 -9 12 C-9.33 9.69 -9.66 7.38 -10 5 C-9.34 4.67 -8.68 4.34 -8 4 C-7.67 3.01 -7.34 2.02 -7 1 C-4.05697101 -0.96201933 -3.48011144 -1.16003715 0 0 Z " fill="#FBF296" transform="translate(38,43)"/>
<path d="M0 0 C3.3125 0.1875 3.3125 0.1875 7 1 C9 3.375 9 3.375 10 6 C9.67 6.99 9.34 7.98 9 9 C8.01 9 7.02 9 6 9 C5.67 10.65 5.34 12.3 5 14 C1.20442119 14 -0.62902617 13.49821059 -4 12 C-3.814375 11.0925 -3.62875 10.185 -3.4375 9.25 C-3.04265379 6.31685676 -3.05308428 4.7355343 -4 2 C-3.01 2 -2.02 2 -1 2 C-0.67 1.34 -0.34 0.68 0 0 Z " fill="#FBF196" transform="translate(12,53)"/>
<path d="M0 0 C-0.165 0.61875 -0.33 1.2375 -0.5 1.875 C-1.21748883 4.92432753 -0.79672192 7.01229281 0 10 C-5.41538462 13.07692308 -5.41538462 13.07692308 -8.375 12.6875 C-8.91125 12.460625 -9.4475 12.23375 -10 12 C-10 9.69 -10 7.38 -10 5 C-10.33 5.66 -10.66 6.32 -11 7 C-11.99 6.67 -12.98 6.34 -14 6 C-14 5.01 -14 4.02 -14 3 C-13.34 3 -12.68 3 -12 3 C-11.67 1.68 -11.34 0.36 -11 -1 C-6.99799622 -2.60080151 -3.95443764 -1.29279692 0 0 Z " fill="#FBF195" transform="translate(35,73)"/>
<path d="M0 0 C1.08287842 3.24863525 0.85269793 3.87344094 0 7 C0 8.32 0 9.64 0 11 C-2.57213134 12.61949011 -3.67669159 13.04408751 -6.75 12.625 C-7.86375 12.315625 -7.86375 12.315625 -9 12 C-9 10.35 -9 8.7 -9 7 C-10.32 7 -11.64 7 -13 7 C-13 6.01 -13 5.02 -13 4 C-12.34 3.67 -11.68 3.34 -11 3 C-11 2.01 -11 1.02 -11 0 C-7.18243176 -1.37432457 -3.92744671 -0.67975039 0 0 Z " fill="#FAEF90" transform="translate(79,65)"/>
<path d="M0 0 C0.9590625 0.556875 0.9590625 0.556875 1.9375 1.125 C2.9275 1.125 3.9175 1.125 4.9375 1.125 C4.9375 2.115 4.9375 3.105 4.9375 4.125 C5.5975 4.125 6.2575 4.125 6.9375 4.125 C6.9375 5.445 6.9375 6.765 6.9375 8.125 C5.9475 8.125 4.9575 8.125 3.9375 8.125 C3.9375 7.135 3.9375 6.145 3.9375 5.125 C3.2775 5.125 2.6175 5.125 1.9375 5.125 C2.2675 7.765 2.5975 10.405 2.9375 13.125 C0.14926345 14.1576802 -0.9302274 14.17009293 -3.8125 13.1875 C-4.555 12.836875 -5.2975 12.48625 -6.0625 12.125 C-5.1875 7.375 -5.1875 7.375 -4.0625 5.125 C-5.0525 4.795 -6.0425 4.465 -7.0625 4.125 C-6.0625 1.125 -6.0625 1.125 -4.25 -0.1875 C-2.0625 -0.875 -2.0625 -0.875 0 0 Z " fill="#FBF194" transform="translate(36.0625,1.875)"/>
<path d="M0 0 C0.99 0.33 1.98 0.66 3 1 C3 1.66 3 2.32 3 3 C3.99 3.33 4.98 3.66 6 4 C6 6.31 6 8.62 6 11 C4.906875 11.309375 3.81375 11.61875 2.6875 11.9375 C0.44592006 12.58337897 -1.7869351 13.2623117 -4 14 C-5.65 12.35 -7.3 10.7 -9 9 C-7.125 5.125 -7.125 5.125 -6 4 C-4.33382885 3.95936168 -2.66611905 3.957279 -1 4 C-0.67 2.68 -0.34 1.36 0 0 Z " fill="#FBF295" transform="translate(13,31)"/>
<path d="M0 0 C2.64 0 5.28 0 8 0 C8.25 5.625 8.25 5.625 6 9 C4.68 9 3.36 9 2 9 C-0.25 6.5 -0.25 6.5 -2 4 C-1.34 2.68 -0.68 1.36 0 0 Z " fill="#F7E96A" transform="translate(4,87)"/>
<path d="M0 0 C2.31 0 4.62 0 7 0 C7.33 0.99 7.66 1.98 8 3 C8.99 3.33 9.98 3.66 11 4 C11 6.31 11 8.62 11 11 C9.68 11 8.36 11 7 11 C6.67 9.02 6.34 7.04 6 5 C4.02 5 2.04 5 0 5 C0 3.35 0 1.7 0 0 Z " fill="#FCF39B" transform="translate(6,82)"/>
<path d="M0 0 C0 4.27709699 -0.70620251 5.55930376 -3 9 C-4.32 8.67 -5.64 8.34 -7 8 C-7.66 5.69 -8.32 3.38 -9 1 C-5.64919071 -1.10976881 -3.77897651 -1.0497157 0 0 Z " fill="#F7E96A" transform="translate(74,36)"/>
<path d="M0 0 C0.33 1.32 0.66 2.64 1 4 C0.34 4 -0.32 4 -1 4 C-1.33 5.32 -1.66 6.64 -2 8 C-3.32 8 -4.64 8 -6 8 C-7.8125 5.6875 -7.8125 5.6875 -9 3 C-8.67 2.01 -8.34 1.02 -8 0 C-4.71023192 -1.09658936 -3.28696233 -0.79953138 0 0 Z " fill="#F7E969" transform="translate(42,48)"/>
<path d="M0 0 C-0.55728913 3.34373475 -1.35173889 6.03312999 -3 9 C-4.875 8.6875 -4.875 8.6875 -7 8 C-9 5 -9 5 -8.75 2.375 C-8.5025 1.59125 -8.255 0.8075 -8 0 C-5.13822943 -1.43088528 -3.06624227 -0.59991697 0 0 Z " fill="#F7E969" transform="translate(92,8)"/>
<path d="M0 0 C5.5952381 0.5952381 5.5952381 0.5952381 8 3 C7.9375 5 7.9375 5 7 7 C4.31742407 8.5225431 2.75455283 9.12235992 -0.3125 8.625 C-0.869375 8.41875 -1.42625 8.2125 -2 8 C-1.125 1.125 -1.125 1.125 0 0 Z " fill="#F7E969" transform="translate(27,77)"/>
<path d="M0 0 C2.64 0 5.28 0 8 0 C7.67 2.64 7.34 5.28 7 8 C5.25 8.75 5.25 8.75 3 9 C0.6875 7.375 0.6875 7.375 -1 5 C-0.75 2.25 -0.75 2.25 0 0 Z " fill="#F7E969" transform="translate(48,90)"/>
<path d="M0 0 C3.68754757 0.49831724 5.60490662 1.10067643 8 4 C7.4375 5.9375 7.4375 5.9375 6 8 C2.4375 8.8125 2.4375 8.8125 -1 9 C-2 8 -2 8 -2.1875 5.625 C-2 3 -2 3 0 0 Z " fill="#F7E968" transform="translate(72,69)"/>
<path d="M0 0 C1.9375 0.5625 1.9375 0.5625 4 2 C4.75 5.625 4.75 5.625 5 9 C2.36 9 -0.28 9 -3 9 C-3.66 7.68 -4.32 6.36 -5 5 C-3.35 3.35 -1.7 1.7 0 0 Z " fill="#F7E968" transform="translate(53,61)"/>
<path d="M0 0 C3 1 3 1 5 4 C4.625 6.6875 4.625 6.6875 4 9 C0.20442119 9 -1.62902617 8.49821059 -5 7 C-4.6189482 4.23737447 -4.16402868 3.15856106 -2.125 1.1875 C-1.42375 0.795625 -0.7225 0.40375 0 0 Z " fill="#F7E968" transform="translate(13,58)"/>
<path d="M0 0 C1.61949011 2.57213134 2.04408751 3.67669159 1.625 6.75 C1.41875 7.4925 1.2125 8.235 1 9 C-5.75 8.125 -5.75 8.125 -8 7 C-7.62005832 4.24542282 -7.1926367 3.17979426 -5.125 1.25 C-3 0 -3 0 0 0 Z " fill="#F7E968" transform="translate(45,28)"/>
<path d="M0 0 C0.33 1.65 0.66 3.3 1 5 C0.34 5 -0.32 5 -1 5 C-1 6.32 -1 7.64 -1 9 C-3.375 9.1875 -3.375 9.1875 -6 9 C-8.1519437 5.77208445 -8.20086443 4.71599191 -8 1 C-5.29120665 -0.35439668 -2.99066732 -0.06501451 0 0 Z " fill="#F7E968" transform="translate(67,6)"/>
<path d="M0 0 C0.6875 1.6875 0.6875 1.6875 1 4 C-0.4375 6.75 -0.4375 6.75 -2 9 C-3.65 8.67 -5.3 8.34 -7 8 C-7.33 5.69 -7.66 3.38 -8 1 C-5.29120665 -0.35439668 -2.99066732 -0.06501451 0 0 Z " fill="#F7E867" transform="translate(93,88)"/>
<path d="M0 0 C0 0.99 0 1.98 0 3 C-0.66 3 -1.32 3 -2 3 C-2 3.66 -2 4.32 -2 5 C-2.66 5 -3.32 5 -4 5 C-3.67 6.98 -3.34 8.96 -3 11 C-4.65 11.66 -6.3 12.32 -8 13 C-8 11.68 -8 10.36 -8 9 C-8.66 8.67 -9.32 8.34 -10 8 C-10 7.01 -10 6.02 -10 5 C-9.34 4.67 -8.68 4.34 -8 4 C-7.67 3.01 -7.34 2.02 -7 1 C-4.05697101 -0.96201933 -3.48011144 -1.16003715 0 0 Z M-6 5 C-5 8 -5 8 -5 8 Z " fill="#FBF194" transform="translate(89,84)"/>
<path d="M0 0 C2.91517292 1.07401108 4.77810176 1.77810176 7 4 C7 5.32 7 6.64 7 8 C5.35 8 3.7 8 2 8 C2 8.66 2 9.32 2 10 C0.68 9.67 -0.64 9.34 -2 9 C-2.25 3.375 -2.25 3.375 0 0 Z " fill="#F7E868" transform="translate(86,30)"/>
<path d="M0 0 C2.91517292 1.07401108 4.77810176 1.77810176 7 4 C6.625 6.125 6.625 6.125 6 8 C4.68 8 3.36 8 2 8 C2 8.66 2 9.32 2 10 C0.68 9.67 -0.64 9.34 -2 9 C-2.25 3.375 -2.25 3.375 0 0 Z " fill="#F7E867" transform="translate(11,10)"/>
<path d="M0 0 C0.598125 0.20625 1.19625 0.4125 1.8125 0.625 C2.1425 2.935 2.4725 5.245 2.8125 7.625 C0.02426345 8.6576802 -1.0552274 8.67009293 -3.9375 7.6875 C-4.68 7.336875 -5.4225 6.98625 -6.1875 6.625 C-5.875 4.25 -5.875 4.25 -5.1875 1.625 C-2.1875 -0.375 -2.1875 -0.375 0 0 Z " fill="#F7E866" transform="translate(36.1875,7.375)"/>
<path d="M0 0 C2.31 0 4.62 0 7 0 C7 2.31 7 4.62 7 7 C5.02 7.99 5.02 7.99 3 9 C1.35 7.35 -0.3 5.7 -2 4 C-1.34 2.68 -0.68 1.36 0 0 Z " fill="#F7E867" transform="translate(6,36)"/>
<path d="M0 0 C2.64 0 5.28 0 8 0 C8.125 5.75 8.125 5.75 7 8 C5.35 8 3.7 8 2 8 C2 7.01 2 6.02 2 5 C1.01 4.67 0.02 4.34 -1 4 C-0.67 2.68 -0.34 1.36 0 0 Z " fill="#F7E865" transform="translate(84,56)"/>
<path d="M0 0 C-0.52161929 3.85998276 -1.30946515 5.30946515 -4 8 C-4.72197162 10.60611077 -4.72197162 10.60611077 -5 13 C-5.33 11.68 -5.66 10.36 -6 9 C-7.32 8.67 -8.64 8.34 -10 8 C-9.67 7.01 -9.34 6.02 -9 5 C-8.34 5 -7.68 5 -7 5 C-7 3.68 -7 2.36 -7 1 C-4.50935112 0.31292445 -2.62113708 0 0 0 Z " fill="#FBF296" transform="translate(14,5)"/>
<path d="M0 0 C0.99 0 1.98 0 3 0 C3 0.99 3 1.98 3 3 C3.99 3 4.98 3 6 3 C6 5.64 6 8.28 6 11 C4.68 10.67 3.36 10.34 2 10 C1.67 8.35 1.34 6.7 1 5 C-1.31 5 -3.62 5 -6 5 C-6 4.67 -6 4.34 -6 4 C-4.02 4 -2.04 4 0 4 C0 2.68 0 1.36 0 0 Z " fill="#FBF193" transform="translate(91,51)"/>
<path d="M0 0 C2.33944736 0.28730055 4.6739143 0.61936779 7 1 C7 1.99 7 2.98 7 4 C7.99 4.33 8.98 4.66 10 5 C9.67 5.99 9.34 6.98 9 8 C8.01 8 7.02 8 6 8 C6 7.01 6 6.02 6 5 C3.69 5.33 1.38 5.66 -1 6 C-1.042721 4.33388095 -1.04063832 2.66617115 -1 1 C-0.67 0.67 -0.34 0.34 0 0 Z " fill="#FBF194" transform="translate(51,84)"/>
<path d="M0 0 C0.99 0 1.98 0 3 0 C3.2226746 1.43534841 3.42761906 2.87345525 3.625 4.3125 C3.74101563 5.11300781 3.85703125 5.91351563 3.9765625 6.73828125 C4 9 4 9 2 12 C1.01 11.67 0.02 11.34 -1 11 C-1.33 8.69 -1.66 6.38 -2 4 C-1.34 3.67 -0.68 3.34 0 3 C0 2.01 0 1.02 0 0 Z " fill="#FBF194" transform="translate(62,32)"/>
<path d="M0 0 C0.99 0 1.98 0 3 0 C3 0.99 3 1.98 3 3 C3.99 3.33 4.98 3.66 6 4 C5.67 4.99 5.34 5.98 5 7 C2.9375 7.6875 2.9375 7.6875 1 8 C0.01 6.35 -0.98 4.7 -2 3 C-1.34 2.01 -0.68 1.02 0 0 Z " fill="#FBF297" transform="translate(56,57)"/>
<path d="M0 0 C0.66 0.66 1.32 1.32 2 2 C1.01 2.495 1.01 2.495 0 3 C-2.625 2.0625 -2.625 2.0625 -5 1 C-5.33 1.99 -5.66 2.98 -6 4 C-7.65 4 -9.3 4 -11 4 C-11 3.01 -11 2.02 -11 1 C-6.91543861 -0.6148266 -4.23493122 -1.41164374 0 0 Z " fill="#FCF49D" transform="translate(77,68)"/>
<path d="M0 0 C0.99 0.33 1.98 0.66 3 1 C3 2.65 3 4.3 3 6 C1.35 6.33 -0.3 6.66 -2 7 C-1.125 1.125 -1.125 1.125 0 0 Z " fill="#FBF194" transform="translate(56,3)"/>
<path d="M0 0 C0.99 0.33 1.98 0.66 3 1 C3 1.66 3 2.32 3 3 C3.99 3.33 4.98 3.66 6 4 C5.67 4.99 5.34 5.98 5 7 C4.01 7 3.02 7 2 7 C2 6.01 2 5.02 2 4 C1.01 3.67 0.02 3.34 -1 3 C-0.67 2.01 -0.34 1.02 0 0 Z " fill="#FAEF90" transform="translate(11,82)"/>
</svg>
